PathFileType	4	(X/Y/Z)	C:/Users/beibeiliu/ov580/test_trc\sequence.23_training_dense_left.trc
DataRate	CameraRate	NumFrames	NumMarkers	Units	OrigDataRate	OrigDataStartFrame	OrigNumFrames
120	120	16	19	mm	120	145	289
Frame#	Time	ThumbCMC			ThumbMCP			ThumbIP			ThumbTip			IndexMCP			IndexPIP			IndexTip			MiddleMCP			MiddlePIP			MiddleTip			RingMCP			RingPIP			RingTip			PinkyMCP			PinkyPIP			PinkyTip			BackHand1			BackHand2			BackHand3	
		X0	Y0	Z0	X1	Y1	Z1	X2	Y2	Z2	X3	Y3	Z3	X4	Y4	Z4	X5	Y5	Z5	X6	Y6	Z6	X7	Y7	Z7	X8	Y8	Z8	X9	Y9	Z9	X10	Y10	Z10	X11	Y11	Z11	X12	Y12	Z12	X13	Y13	Z13	X14	Y14	Z14	X15	Y15	Z15	X16	Y16	Z16	X17	Y17	Z17	X18	Y18	Z18	
144	1.2	-187.223	14.2864	9.71152	-166.299	13.4847	-6.03076	-147.444	15.9952	-15.2151	-128.523	16.1487	-16.27	-174.117	29.2635	-54.3252	-178.278	0.843665	-59.1444	-186.638	0.0814778	-28.84	-194.762	27.7003	-62.9275	-197.999	-1.12101	-61.928	-198.625	4.3993	-27.7471	-209.12	29.6979	-67.9538	-209.068	6.17779	-68.0517	-212.622	2.31526	-36.5901	-231.332	45.6073	-54.5863	-233.978	50.8404	-75.4964	-235.224	57.2795	-89.2874	-218.999	48.0475	-18.0509	-231.065	42.1511	6.01365	-200.221	41.2498	-0.879334	
145	1.20833	-181.619	26.6308	7.06826	-164.6	25.2895	-6.97873	-144.393	30.9172	-17.1085	-127.898	32.878	-17.5909	-174.499	34.5624	-58.4859	-175.806	9.22135	-60.8179	-182.319	5.89186	-32.0964	-195.791	32.2879	-63.287	-194.542	3.73511	-61.5046	-195.02	10.3661	-26.3692	-209.852	34.7705	-65.0027	-206.319	7.00435	-66.4269	-206.669	6.5705	-37.0818	-238.816	46.8861	-60.1192	-240.184	47.5336	-75.5106	-242.641	52.9409	-93.4612	-224.987	49.1662	-20.5129	-233.865	44.8271	4.19884	-202.36	47.0571	-0.25181	
146	1.21667	-185.806	34.02	5.8608	-165.574	35.471	-9.22739	-144.22	41.8387	-12.2798	-130.589	47.5514	-19.3224	-176.99	42.5971	-59.209	-169.973	17.4573	-60.6607	-180.343	16.2579	-27.7309	-192.339	37.3811	-64.2081	-188.749	7.74886	-60.6999	-192.173	13.1956	-29.0883	-209.287	34.1956	-69.467	-199.94	7.20368	-64.581	-201.788	6.4392	-40.0886	-239.071	41.6245	-60.212	-239.001	44.8214	-76.5487	-242.033	49.7548	-96.3169	-226.47	49.3922	-21.3865	-234.232	45.4802	1.7539	-207.902	54.4066	-2.03651	
147	1.225	-183.978	43.784	3.93587	-163.287	46.5657	-7.20274	-148.685	56.0096	-18.6602	-130.78	63.8914	-17.3213	-175.926	51.4643	-59.1323	-168.66	24.4397	-60.2377	-175.961	22.0872	-30.8717	-195.079	37.992	-66.0093	-183.125	13.2671	-61.3095	-188.17	17.1792	-29.6459	-212.152	34.3156	-68.5265	-194.544	12.4868	-64.9361	-198.462	11.2935	-36.1153	-241.263	37.8496	-61.1443	-239.655	39.9056	-81.1094	-244.326	42.2157	-99.0864	-230.45	49.807	-26.1745	-233.787	43.7523	4.57551	-206.534	57.3414	-2.78439	
148	1.23333	-184.192	52.318	5.94689	-165.56	57.7488	-10.9795	-151.13	67.7154	-19.3952	-134.3	76.6245	-18.896	-181.093	56.8143	-60.3796	-169.703	30.4818	-61.2629	-178.213	29.2229	-30.2756	-192.746	44.1133	-65.9236	-178.194	18.7178	-59.2032	-188.453	23.6144	-28.0445	-210.831	33.0585	-70.1503	-191.173	15.5482	-65.1668	-191.421	19.0627	-35.8641	-237.901	34.8568	-61.7044	-238.253	36.1673	-81.7311	-243.378	35.871	-100.657	-230.937	49.5707	-27.4477	-233.388	45.8913	4.71167	-211.439	61.9997	-6.36126	
149	1.24167	-188.126	58.0298	2.83119	-167.235	64.8888	-9.12813	-152.754	80.2433	-22.0781	-140.323	91.2893	-25.0155	-181.005	58.3978	-64.4048	-169.548	36.5922	-62.2884	-176.032	39.6867	-29.492	-193.951	47.5645	-65.6745	-176.569	22.6656	-60.7441	-184.566	32.492	-25.9856	-206.795	36.5926	-69.8263	-187.455	17.8076	-63.4136	-189.311	18.6192	-37.27	-235.267	31.3694	-60.641	-238.069	28.8058	-78.3563	-240.904	27.5917	-99.9606	-233.744	48.4938	-28.1853	-236.709	42.9515	0.263872	-213.448	66.2736	-7.0643	
150	1.25	-191.989	64.5577	-2.07825	-172.199	73.7255	-16.907	-160.63	86.342	-23.2012	-148.991	98.7508	-26.1853	-186.712	63.0421	-64.4828	-165.137	43.517	-59.4504	-177.09	42.5028	-31.7951	-195.117	44.1863	-68.75	-175.789	25.882	-56.2335	-182.283	33.6548	-28.9709	-203.907	36.2454	-71.8171	-184.275	20.9289	-61.929	-187.84	25.5393	-35.6896	-236.79	25.396	-62.6485	-235.244	22.8473	-81.7672	-240.79	20.2919	-100.983	-233.279	47.0507	-25.7738	-235.473	43.1726	-1.45489	-218.871	67.7436	-9.66911	
151	1.25833	-193.448	71.5233	-3.57524	-180.148	75.918	-20.8135	-167.621	95.0774	-30.3415	-159.3	105.657	-35.9496	-190.845	64.3401	-66.2696	-168.447	46.3855	-62.1185	-178.91	47.4372	-32.7252	-198.511	44.2058	-67.8883	-173.561	28.6602	-57.875	-183.916	39.0738	-27.3783	-204.568	30.7893	-72.3315	-182.392	22.6031	-60.5412	-185.227	26.8435	-35.901	-233.378	21.9195	-64.0593	-234.187	14.8077	-79.8647	-237.266	10.5953	-95.569	-237.596	43.0454	-30.946	-238.509	40.3715	-3.12292	-224.284	64.0082	-16.4188	
152	1.26667	-197.557	71.8027	-5.58492	-182.648	77.2151	-18.9234	-173.7	94.5375	-31.2906	-166.241	106.909	-37.7094	-190.181	62.945	-68.4341	-167.939	49.2797	-60.8571	-177.464	49.6664	-33.7303	-197.415	41.7743	-69.4941	-171.692	31.7524	-57.6971	-183.619	38.7167	-28.044	-206.362	29.7648	-69.7649	-182.267	21.3089	-61.7435	-187.837	28.9516	-32.5797	-233.057	12.5738	-60.6211	-230.437	9.95084	-79.446	-232.51	2.7385	-95.8192	-236.294	39.6887	-27.9795	-238.401	42.6533	-2.24786	-226.641	62.8387	-14.782	
153	1.275	-200.739	70.5442	-6.42148	-184.91	81.3508	-21.384	-178.81	92.5171	-38.182	-170.374	105.057	-42.5138	-196.187	58.5605	-67.977	-168.743	46.9248	-59.5856	-182.765	49.6217	-33.0613	-194.723	40.9214	-70.8236	-172.943	29.3253	-56.2964	-183.311	42.2697	-27.9502	-208.653	23.2423	-67.8432	-180.135	19.6079	-58.3251	-184.122	29.4482	-34.901	-230.232	11.931	-59.5608	-229.586	0.670104	-77.3742	-231.481	-5.30927	-91.7673	-237.374	36.1131	-31.6626	-240.166	39.0915	-0.590332	-229.177	62.3151	-14.441	
154	1.28333	-203.307	70.6713	-7.30831	-187.598	83.2576	-24.5156	-180.973	96.8394	-41.6985	-176.02	105.471	-50.3053	-192.628	57.8103	-71.2049	-172.567	43.6059	-60.5734	-181.844	48.4896	-34.3314	-198.354	36.0664	-68.5478	-172.224	30.9778	-55.3525	-186.486	43.4607	-26.5799	-207.279	25.519	-66.5199	-180.423	18.0011	-55.3587	-185.875	28.3994	-31.7556	-229.772	6.10889	-55.3165	-227.84	-0.58137	-75.6733	-228.09	-10.5765	-86.9005	-237.094	36.615	-28.4819	-239.87	37.3823	0.629006	-228.389	61.9047	-17.8854	
155	1.29167	-206.173	72.0442	-5.06992	-193.787	78.8873	-28.6751	-186.771	94.223	-43.0741	-181.926	109.663	-52.9296	-196.609	58.6865	-68.995	-170.608	47.6541	-60.1854	-182.934	51.7412	-32.6741	-198.704	35.8978	-68.2057	-172.208	33.0252	-50.7225	-186.999	41.5319	-26.3781	-205.517	22.6597	-66.026	-179.824	16.837	-56.7245	-185.188	30.0787	-30.9433	-227.042	2.46504	-57.1219	-223.93	-8.01688	-69.7386	-225.578	-16.8751	-83.5237	-238.232	34.8699	-27.9123	-242.077	38.6184	1.35419	-234.058	58.1403	-15.171	
156	1.3	-209.819	72.2378	-9.70067	-198.8	77.7685	-29.0266	-192.894	93.4044	-47.0934	-186.779	106.045	-53.5105	-197.903	48.855	-70.2864	-173.871	42.6269	-61.094	-183.529	49.6464	-33.99	-196.775	29.0162	-67.1964	-172.65	28.9327	-51.026	-190.043	40.749	-24.6107	-203.166	13.1033	-64.3418	-178.281	20.1881	-53.7225	-186.555	29.9952	-28.5875	-224.153	0.658779	-50.6049	-220.002	-10.4816	-64.7853	-220.562	-25.8573	-76.7157	-237.474	28.7403	-27.8291	-241.259	36.0764	-0.858296	-235.024	54.0047	-19.9463	
157	1.30833	-213.697	73.8123	-7.90563	-201.349	76.9671	-27.2258	-197.445	89.9241	-49.5383	-194.155	99.3783	-61.8474	-200.177	50.2735	-70.5652	-175.276	43.4723	-62.4245	-184.989	52.1245	-33.4217	-200.556	26.0681	-64.1623	-172.103	30.44	-49.6063	-192.937	41.4943	-24.1114	-202.68	9.0191	-59.5233	-178.55	17.5091	-51.1057	-188.312	29.3527	-26.4589	-222.353	-7.62101	-47.7239	-216.841	-16.6352	-60.6389	-211.492	-28.1841	-75.9138	-238.529	21.884	-26.8829	-243.399	30.172	0.341273	-236.712	55.2725	-17.8018	
158	1.31667	-218.412	69.8854	-11.875	-206.798	79.1924	-32.8312	-202.475	84.7483	-50.1768	-198.9	96.8019	-62.7769	-200.412	44.2817	-70.91	-175.399	42.868	-59.9883	-186.185	50.4532	-33.5386	-195.208	25.8793	-65.0957	-172.324	29.5342	-50.5713	-190.325	40.5875	-24.3964	-198.088	7.28904	-59.6613	-176.957	18.4136	-48.7661	-185.97	29.0443	-25.4586	-219.468	-12.1554	-44.9716	-212.235	-22.262	-53.9922	-203.294	-35.2532	-70.3864	-237.85	21.2094	-23.0071	-245.478	27.4144	1.13266	-240.454	51.4435	-20.406	
159	1.325	-222.753	71.0359	-11.2323	-212.003	79.1873	-35.5601	-208.668	86.3689	-55.8933	-205.049	97.4075	-67.7628	-203.146	46.251	-69.9648	-174.922	45.3865	-57.4098	-187.402	50.4557	-34.3341	-198.143	22.667	-61.8598	-172.951	29.8517	-44.8783	-193.537	43.9167	-24.0395	-197.981	6.29873	-54.5778	-176.092	21.1117	-45.932	-190.05	32.9397	-24.9673	-216.107	-11.5971	-43.5402	-206.05	-21.6109	-54.8054	-199.377	-33.2852	-67.1809	-239.818	17.5003	-23.2308	-247.423	25.1433	-1.20068	-242.688	45.3525	-22.1458	
